<mxfile host="65bd71144e">
    <diagram id="HIP3nbAZw_EuaXWnEj3U" name="Page-1">
        <mxGraphModel dx="767" dy="564" grid="1" gridSize="10" guides="1" tooltips="1" connect="1" arrows="1" fold="1" page="1" pageScale="1" pageWidth="850" pageHeight="1100" math="0" shadow="0">
            <root>
                <mxCell id="0"/>
                <mxCell id="1" parent="0"/>
                <mxCell id="7" value="http://ics2o.mths.ca" style="swimlane;whiteSpace=wrap;html=1;" parent="1" vertex="1">
                    <mxGeometry x="40" y="40" width="760" height="480" as="geometry"/>
                </mxCell>
                <mxCell id="8" value="http://ics2o.mths.ca" style="swimlane;whiteSpace=wrap;html=1;" vertex="1" parent="1">
                    <mxGeometry x="40" y="40" width="770" height="480" as="geometry"/>
                </mxCell>
                <mxCell id="9" value="&lt;font style=&quot;font-size: 20px;&quot;&gt;Please enter your age&amp;nbsp;&lt;/font&gt;" style="text;html=1;align=center;verticalAlign=middle;resizable=0;points=[];autosize=1;strokeColor=none;fillColor=none;" vertex="1" parent="8">
                    <mxGeometry x="40" y="70" width="220" height="40" as="geometry"/>
                </mxCell>
                <mxCell id="10" value="Enter your age here&amp;nbsp;" style="whiteSpace=wrap;html=1;fontSize=20;" vertex="1" parent="8">
                    <mxGeometry x="50" y="130" width="210" height="30" as="geometry"/>
                </mxCell>
                <mxCell id="11" value="You can watch ..." style="text;html=1;align=center;verticalAlign=middle;resizable=0;points=[];autosize=1;strokeColor=none;fillColor=none;fontSize=20;" vertex="1" parent="8">
                    <mxGeometry x="40" y="180" width="180" height="40" as="geometry"/>
                </mxCell>
                <mxCell id="13" value="&lt;font style=&quot;font-size: 20px;&quot;&gt;Age Verification Movie Tester&lt;/font&gt;" style="text;html=1;align=center;verticalAlign=middle;resizable=0;points=[];autosize=1;strokeColor=none;fillColor=none;" vertex="1" parent="8">
                    <mxGeometry x="240" y="40" width="280" height="40" as="geometry"/>
                </mxCell>
                <mxCell id="15" value="" style="shape=image;verticalLabelPosition=bottom;labelBackgroundColor=default;verticalAlign=top;aspect=fixed;imageAspect=0;image=data:image/jpeg,/9j/4AAQSkZJRgABAQAAAQABAAD/2wCEAAkGBxISEhMSEBMRFRMWFRIXGBcSEhIQFRcTGRYYGCAVFRkYHSggGBolHRkTITEiJSktLi4uFx8zODMsNygtLisBCgoKDg0OGxAQGzAmICUtLTA3MDctLTUwLzYtLjUrLTI2MC8rLS4vLy0tMistLS0vLS0tLS0tLS0tLS4tLS0tLf/AABEIAL4BCQMBIgACEQEDEQH/xAAcAAEAAgMBAQEAAAAAAAAAAAAAAwYEBQcCAQj/xABLEAABAwIDBAYFBwkDDQAAAAABAAIDBBEFEiEGEzFRByJBYXGBMkKRobEUI1JygpLBJDNTYmN0srPRNHOTCBUWNUNEVGSUorTC0//EABoBAQADAQEBAAAAAAAAAAAAAAAEBQYDAgH/xAA4EQACAQICBwcEAAMJAAAAAAAAAQMCEQQFEiExQVFxgRNhkaGxwdEiMuHwJDNCBhQjUnKCorLS/9oADAMBAAIRAxEAPwDuKIiAIiIAiIgCIiAIiIAiIgCIiAIiIAiIgCIiAIiIAiIgCIiAIiIAiIgCIiAIiIAiIgCIiAIiIAiIgCIiAIiIAiIgCIiAIiIAiIgCIiAIiIAiIgCIiAIiIAiIgCIiAIiIAiIgCIiAIi+EoD6i+Ar6gCIiAIiIAiIgCIiAIiIAiIgCIiAIiIAiIgCIiAIiIAiIgCIiAIiIAiIgC/PW0m0EuJYnPDvHOoYHZRHe0TnMJaHOHrXcXuBPYByC7B0h478hw+pqAeuGZI/71/Vb7Cb+AK4bsPQFlPnd6UpLteOXgPxPmoWYTdlA7bXq/ehZ5Rh+2xVN1qp1vps8zcUTJIP7JNUU/dFITHxv+bfdnuVgw/brEoQBKKerA9Yg0ch8S3My/wBkLU5UyqhjzCejZVfnr9dZqZsswkuuqhJ8Vq9NXkdM2Q2yirjJHu5IZ4w1zo5C13VdpmY5pIc24I7D3K0rhFPXmjqIK0XyxEtlABOamksHaDjlOV/2V3OOQEAggggEEagg9oWhwmJU8env2MyOYYP+6zaC1raiRERSiCEUM8zWNc97mta0Euc4hoAHaSeAXHtotu6jEHOhw5z4KMXa+otlmlPAiH6De/j4cFzllpip063ZHWCCSatURq7L/tFtzRUbt295ln1+ZgbvZNPpW0Z9ohVGr6Ra599zTU8Dec8pnf45WAAeGY+KrFHQxxDLG0C+pPFzjzceJPeVkZVRzZvW3aNWXft+EafDZDDSrzPSfBal8vxXI2v+muKfpqT/AKN//wBlkUfSFiDLb6GmqG313LnU77dwfmaTx0uL8wtFlTKo9OZ4hPXVfovaxLrybBVKyptyb9215HVNmtr6SuuIXlsrfThkGSVv2T6Q/Wbcd6sK4dhFPmxDD7DrCdzsw9IMbE8kX5Hq3XaK55EchboQx5B7wCr/AAk/bxqtqxlMfhVhZnGqr7/EVNdFH+dkjZpfrvazTnqVqZttMNZcPrqMEdnyiO/svdfnvZKZ1Y6aSsJqJLxjPP8APOA10Bdew7grVHTsb6LQPBoHwUTE5moZHHo3t393IsMHkrxEVMrrtfuvvtxR0p/SThQ4VQd/dxTy+9jCsZ/SjQeqKt/1aSb/ANgFQyDzK+ZVEec1bqF43+CdT/Z6L+qRvkkvdl1k6Uob2ZR1zu/LDGP++QLEk6Tp79TDnW/a1cbP4GvVVyplXN5vNbUl5/J2pyHCra6n1X/k6hsTtMa+KV74dy+KUxuaJN60nK112uyt7HDsVlVB6I2/M1h/5t3uiiV+V/FU6qKantaXoZXEUKOauinYm14MIiLocQiIgCIiAIiIAiKOWQNaXOIDQCSToAALklAcV6esSM9RSYbGe3eyAc3dVt/BokPmFHFCGta1osGgADuAsq5hFQa/EqzEXA5S8iO47CMrfMRtaPNWvKs1m8+lKo1/SvN/ixq8kh7OFyPbU/Jfm5FlTKpcqZVUaRd6RA+MOBa4XBBBHMFXfoqxYyUzqSU3lpHCO5Ny6Ei8b/u3b4sKp+VMNxD5HWQVWu7cRTz8hFI4ZZD9R9j4OcrTKsT2c2g9lWrru+OpUZzh+2g01tp19N/z0O1IipHS5tIaDDpHMNppjuYyDYguBu8crNDjfnZagyBQ+kDad+KVTsPpXEUcLvn3tNt69p9Efqgiw52J4AJDTtY0MYA1rRYAaABa3Y7DBBTMuLPeA93O5GgPgLe9bvKsnmGLc0rS+1al8/HcbPLMKsPCm/uq1v2XT1uRZUyqXKmVV+kWekRZUyqbIvmVNJDSM3YWHPirONoaWaTuzPeyNvuEvsXVqwXjeObXfArn3RbDmqa6X6IpofY10h/mBdGeLgjmFsMBTo4ahd1/HX7mHzKvTxcj77eCt7H5b6ORZ1S3kY/i4K75VTOj5vz9YO9v8T1eMqz+Zu2Kq6eiNNk9X8HR1/7MiyplUuVMqr9IstIiyplUuVfcqaQ0i39Ew/J6r98l/lxK9Kj9E39mqf3yf+GMfgrwtth/5NHJehgMV/Pr/wBVXqERF2OAREQBERAEREAVA6ase+SYZI1ptJUHcttycCXn7ocPFwV/XBOlOr+X4xBRNN4qZoLwOGc9d9/Ldt9vNeJJFHS66ti1+B6ooddSpW16jzshhu4pY2kdZwzu8Xa28hYeS3OVTEJlWDklclTrq2vWbqOlR0qinYlbw1GNMQ1pceABJ8ALrHwmrE0Mco9doNuR7R7brF2zkc2kkbGC58lo2gC5OY2Nh9XMtR0YVmenfETrG/T6j9f4s6lU4dvDObhUl5fNiNViksSoeNLfn8XLZlUNVTNkY+N4u17S0+BFlmZUyqGq7bCW2nqZcOjbGXVFII5TeemduJb8XFoGWT7TMrvG651/lA1O8qqClvpq4jve8MH8LltsBrvkmIRSnSKpy082tgH6mJ/3iWfbCrnThpjVE48N1Te6okJ+IW0gxPbYbtVts/FL9fKxjZsN2OI7N7Lrwb/VzN4GW0HYmVTFqZVilVqNm6iGy8YXg9VXM3sUrKSkPozyND3y24mJhIAZx6zuPYFgbXOLaOoLeO7I8jofcStXslhcFRSxTTRMkkIcC54znqvc0ceGgGissH2Mcbnlp0taSXfa92V2MrmkrUMVWjqbb37bWRtNothKJjLjHMk/H8onjcxx5WaQW+/wVU2WxyoZJuJw+eLNlErA6UDW1w8DrMPfw9yvcFBFH6Ecbfqsa34BZFl2xGaRSx6HZLx2f8ffmjjhsvkir03K30287v2vwZ52N2nNFHUMdSVUsktVNJdgiY0Ms2NtnPeL9WMH7SsmC7eST1UNPLRGFsxka15qGSuDmxuk6zGtsBZjtQ4620Vdyr7hX+ssNH7WoPkKWYfiF3wWaSySUQ2Vtm++zmR8ZlsVEdcuk29b3b3yOe7Bi1ZWt73e6RwV7yqj7Hi2KV7e+f3TtH4q/ZVDzd/xdXT0RNymq2Fp6+rMKulMccjwL5GPfY9uVpNvcqUNsKs+jDSnwnY8+xr7roWVfVFgxEVCfaR6XVq3giRPHLW12cmj0Tv4so1FjVfNIyNjadjnuaxu8ZUMaXuNg3O4ZQSbAa6kq3U+xmPOIzuw9jbi5vI4gdpAA1PddK70qb98oP8AyY12hX+Xw4bExutxJa7b3uT38yjx0+Iw8ioUreq+5b2t3I0Ox+z/AMhgMRlMrnSSSOfkEYLnn1WgmwsB2lb5EVykkrIp223dhERfT4EREAREQBERAYOM4gymgmqJD1Io3PPg0E28TwXAOjuF0z6mvl/OTSv1Pe7O4juzED7Ku/T/AI2Y6SKijuZKqQXA47thBt5vLB5FYmB4cKenihHqMaD3u4k+26pc7xHZwqNf1PyWv1t0LTKotKV1/wCVeb1elzJyplUuVMqyVzSaRq6+ildJBLE+NroXPcBJGZWucWFguMw4BzvO3JaXZfZJ1HK+TfBzXtILAzKL3BBHWPDUeat2VMqkrGyqJwp/S91lz4XIzw8Tk7Vr6uOvlxsRZUyqXKmVRrkjSMDEqATRPidoHC1xxa7iHDvBAPkqZ0o4k+phw6seLTME1POOVRC5p9hBzDucF0LKqB0kURaxxHoSlr/CoiaRf7UWe/fG1XuR4vRlcNWyr1/PsipzaHSoUq2r0/D9S6UkokYx7dQ9rXg8wQDdTZVWOjXExNSCMnrwnIfqcWnwtcfZVsyqoxEbhkqje52/ehZQzKShVrejX4rRb6GWL6bHN8yFVthcRihpN3USRxvZJK0te5rSNb/G6vOVVvaDY2Gpc6Rp3crmlpdkbI12lrlp9YcxYrthpY3S4pW1S2ndK9mk14a/wcZ6a1UpY1epJqz33t6WNvR1cczc8L2Pbci7CHC/K48QsjKtdsxgfyOAQ585zucXZctye65toB2rbZVHl0FW1Q7q+p8Ud466nSnUrMiyr3s5FmxWlH6OCrk8zumD4uXrKs7o8hMlbWzerEyCnadLF5vK/wBgMI9qsMmp08XS+Cb8re5CzSS2Ha42Xnf2OXbNR2xrEm8n1g9lS1X7KqJgwtj2Ig9std/PuugZUznVi6uS9Blb/hku9+pFlVXxva9lPM6DdSPeA06OY0ai/aVbcqifTMdq5jCe9oPxUGCSKmq8tLqXBOxLm7Sqm0dVnxtc0WAVktbJGZG0tLFFPTSl09WzO4RyNktGwDU9W2pA17V2UY5S/wDE0/8AjR/1XMzhsPbFF/hs/oopMGgcC0ww6gj83H2+SuIM5hw9OjRFZbfuv6oq5culmq0q5LvZ9tvQ7ACvqrPRvPnwuiN7kQMafrM6pHtBVmWpKEIiIAiIgCIiAIiID8/4zUHEsfkdfNBR9VvK7NPaZC4+DQrnlXNqvA8TwGWSQxiameRmkaC5jgCbFx9KJ2p46a9tlbdm9sKWsADXZJf0cpAdf9U8HeWvcsnnuHnc3a2+hJK63cb8Nb27C7y2aOmjQv8AVf8AfI3eVfcqmyplWe0i10jXYhXwwNzTyRxg8C9wbfw5qt1fSFRsLA3fPa5wGcMLGAXsTd1ibdwVz2IweOtlkr6iNkkTSYqUPaHDK0kSTi+hzOFgeTO9eem/ZYVVBvomje0l3iw4w267BbhYBrvsd61WDySiqNVzN3eu3D9/BS4jM61U6Y7W4nkC4uOBTKqp0Y4z8opd043kgs08zF6p9gI8lccqzWIjqgkqjq2p/vjtLaKZSUqpbyDKsDH8NE9PJGbA2zNceDZG9ZrjyFwPJepsWzSGCkjfU1HayH0Wd80noxDx17lusN2BdNZ+KyCXUEU0OZlO0g3G8PpTHxs3uVjgMuxE1Srp+lLXd+y3927v3EXFY2KhOh63w+f2/ccPw2okw2ohnLTuKiPNYagxlxDgCNC5jwR5D6S7DTyNe1r2EOa4AgjUEHtCtO2Wx1PiFL8meAzIBuXNaPmnAWGUfRtYFvLwC4ZRV9Xgk5pK6NxgJJaRqLX/ADkLj6TddW/A3vd5vlrxC7WJfWt3FfK3cUV+AxnZfRX9vp+P3l03KmVQYXicFSzPBI17f1TqDycOLT3FZuVY+q9L0atTL1Vpq6IcqZVLlWPX1ccLC+Z7WNHa48TyA4k9wSm7dltPrrtrZBilY2CJ8r7kNGgHFzjoGjmSbAeKumwuDOpKONktjO8ulmI/SyHMR4NuGjuaq9srgElVLHW1bHRwxnNTQPFnl/ZUyj1TYnKw8OJ1suiLaZRgXh43VIvqq8luXPe+nAz2PxSmqVNOxeff7I/OVM3LtHWjm+p95Dlf8qo8zbbTVQ5mQ+2JpV9kc1ou4gDvIHxVHnzti/8Aavcsctq/wOr9iPKmVaqr2soYr5qmIkdkbt4fDq31WJHtUZdKSirqi/Asgcxn3jw9igRYPES/ZQ3093q8yVVioqdtS8SwZUyrWw0GOT+hR01MLjWpn3ht9WP8VnUvR1iMhBq8TytvrHSQNZpyEhsR5gqdRkeLr+61PN/FyNVmkNOy76fNjf8ARa/8idHa26qaxnkZnPHue1XJavAcFho4tzThwbmc4l73SPc88XOc4kk6D2BbRbKOl00JN3aSKCtp1NriERF7PIREQBERAEREBG9gcCHAEHQgi4I5ELmO2fQ3S1N5aEiln4hrR8w4/VGsZ726DkupIgPzf/nvE8IkEGJQvki4NeTmJH7OXg/wOvDgrOzHI8RbHTUEhMtQcjrBwfBD/tJX/Rs24B4FzmrsFdRRTMMc0bJI3cWyND2nxBUWGYXBTM3dNFHEy5OWJjWNzHtsO1VcmT4WuVSWtZ3stj5rZzttJVOMlVDpvf2JMPomQRRwxNDY42tY0Dsa0WCmfGCCCAQQQQdQQewqRFaEU/N0mC1GFY06KngnlhkJLGxNLi+F+ot2XYbi5+iewrpNDsjV1nWr3mmhJBFPTv8AnnN5TzDgDwLWdnrLpCKJJgYJJe2rpvVa36uJ1U8io0E9RgYThUFNGIqaJkUY9VjQ3XmeZ7zqs9EUs5Ba3G8Ep6yMxVUTJWdgeLlptbM08Wu46hbJEBx3E+hFrXmTD6yaA3JAdd1u4PYWut43PivMOw+0MegrKGQDgZTITbv+a/ErsiLjLh4Zf5lCfNI90SV0fa2jlVLsRjUmlRX0sIv/ALvCZXW+21oCtGz2wVLTOEshkqqgaiaqdvXNP7Np6sfkL96tqLzFhYYneOhLkkj7XLXX9zbCIikHM5njvRSKiulrW1s8JktpC0B46oaQH30BA5LMpOiTD2nNOaqqde96mdz9fBuUHzXQEXjQp0tK2vifbu1jS4ZspQU5BgpKZjh6zYWZ/vEZvetwBbgvSL2fAiIgCIiAIiIAiIgCIiAIiIAiIgCIiAIiIAiIgCIiAIiIAiIgCIiAIiIAiIgCIiAIiIAiIgCIiAIiIAiIgCIiAIiIAiIgCIiAIiIAiIgCIiAIiIAiIgCIiAIiIAiIgCIiAIiIAiIgCIiAIiIAiIgCIiAIiIAiIgCIiAIiIAiIgCIiAIiIDy91hdYkkzgAeZ0Cyni4KwnU9yNeHDu7UB7FSb27Rf3L02ZxuLcDbiBqod265ObU8tNL37E3TtetxJPmRb4ICUzO+A9vBDO4W779o7OKiELvpdoP3eC+MjOhvw5gdvFASsmcTa9j33HsC8x1LiCRwHbwUZYb5r62toO6y+7shuUEW8AUBKalwAJ4HgjqktIvbXXQg6c1EYja19NNEMB014i3DgLWQEr6ojlrwFxc+S+753cdbaEHXkVC6Im2vDu/FHsde+bUXtYAanS/igJ9+4am1tOBB4qberDZCdBfT+gsFlbtAf/Z;" vertex="1" parent="8">
                    <mxGeometry x="440" y="145" width="265" height="190" as="geometry"/>
                </mxCell>
            </root>
        </mxGraphModel>
    </diagram>
</mxfile>